<?xml version="1.0" encoding="utf-8"?>
<!-- Generator: Adobe Illustrator 24.0.1, SVG Export Plug-In . SVG Version: 6.00 Build 0)  -->
<svg version="1.1" id="Шар_1" xmlns="http://www.w3.org/2000/svg" xmlns:xlink="http://www.w3.org/1999/xlink" x="0px" y="0px"
	 viewBox="0 0 512 513" style="enable-background:new 0 0 512 513;" xml:space="preserve">
<style type="text/css">
	.st0{fill:#FFFFFF;}
</style>
<g transform="translate(0.000000,513.000000) scale(0.100000,-0.100000)">
	<path class="st0" d="M2830,5114c-466-100-809-411-933-849c-55-196-67-303-67-620v-235h-248c-297,0-331-7-403-79
		c-77-77-79-88-79-567c0-252,4-432,11-461c14-65,55-121,114-158l48-30l278-3l279-3l2-962l3-962l22-41c25-48,83-101,129-120
		c49-20,969-20,1018,0c46,19,104,72,129,120l22,41l3,963l2,962h313c191,0,327,4,351,11c48,13,123,82,147,134c17,37,19,76,19,505v465
		l-30,53c-37,64-94,107-161,121c-29,7-173,11-345,11h-296l4,213c2,116,7,219,12,228c17,38,52,43,366,49c288,5,307,6,345,27
		c42,22,78,58,111,108c18,28,19,55,22,460c2,237,0,444-3,461c-8,46-56,112-105,145l-43,29l-486-1C3005,5129,2880,5125,2830,5114z
		 M3710,4520v-310h-219c-250,0-341-12-438-60c-106-52-172-151-193-288c-7-40-10-190-8-363l3-296l27-35c51-67,56-68,447-68h351v-340
		v-339l-358-3l-359-3l-36-25c-21-14-46-43-57-66c-20-39-20-63-20-1022V320h-355h-355v979c0,667-3,989-11,1008c-15,42-68,92-109,103
		c-19,5-164,10-322,10h-288v340v340h301c336,0,346,2,397,68l27,35l6,386c6,412,11,456,65,619c60,180,164,328,302,431
		c131,96,287,158,472,185c14,2,184,4,378,5l352,1V4520z"/>
</g>
</svg>
