<?xml version="1.0" encoding="utf-8"?>
<!-- Generator: Adobe Illustrator 24.0.1, SVG Export Plug-In . SVG Version: 6.00 Build 0)  -->
<svg version="1.1" id="Шар_1" xmlns="http://www.w3.org/2000/svg" xmlns:xlink="http://www.w3.org/1999/xlink" x="0px" y="0px"
	 viewBox="0 0 512 512" style="enable-background:new 0 0 512 512;" xml:space="preserve">
<style type="text/css">
	.st0{fill:#FFFFFF;}
</style>
<g transform="translate(0.000000,512.000000) scale(0.100000,-0.100000)">
	<path class="st0" d="M1610,5113c-532-14-879-133-1156-395c-208-198-336-438-399-752C6,3720,5,3695,5,2555c0-1141,1-1154,51-1405
		c70-350,235-627,489-825C764,156,976,75,1338,24C1438,9,1587,6,2385,3c1171-6,1399,4,1673,73c265,66,473,184,652,371
		c225,233,345,524,392,948c19,170,19,2167,0,2335c-73,654-348,1056-862,1258c-181,71-390,108-683,122C3382,5118,1880,5121,1610,5113
		z M3425,4650c211-11,375-31,492-61c231-58,403-162,512-306c111-148,170-316,202-578c16-133,24-1889,9-2114c-27-422-102-640-280-821
		c-186-189-388-260-815-289c-192-14-1708-14-1925-1c-413,25-623,84-801,228c-206,166-310,399-350,782c-15,144-13,1937,2,2110
		c44,505,189,774,497,925c153,74,346,113,617,124C1852,4660,3206,4660,3425,4650z"/>
	<path class="st0" d="M3855,4231c-94-24-164-81-206-166c-59-121-36-265,57-359c94-93,238-116,359-57c69,34,112,78,148,151
		c30,62,30,185,0,251c-48,107-147,176-263,184C3914,4237,3872,4236,3855,4231z"/>
	<path class="st0" d="M2385,3869c-494-68-916-415-1073-885c-120-358-81-758,104-1079c443-765,1495-891,2102-251
		c172,182,285,401,339,656c25,118,25,382,0,500c-58,274-173,488-366,681c-192,192-409,309-676,364C2720,3875,2483,3883,2385,3869z
		 M2770,3381c304-81,534-315,616-628c13-49,18-103,17-198c0-111-4-143-27-218c-91-304-310-518-611-598c-112-30-298-30-409,0
		c-306,81-536,312-618,620c-29,108-28,296,1,406c87,327,341,564,676,631C2507,3414,2672,3407,2770,3381z"/>
</g>
</svg>
