<?xml version="1.0" encoding="utf-8"?>
<!-- Generator: Adobe Illustrator 24.0.1, SVG Export Plug-In . SVG Version: 6.00 Build 0)  -->
<svg version="1.1" id="Шар_1" xmlns="http://www.w3.org/2000/svg" xmlns:xlink="http://www.w3.org/1999/xlink" x="0px" y="0px"
	 viewBox="0 0 512 512" style="enable-background:new 0 0 512 512;" xml:space="preserve">
<style type="text/css">
	.st0{fill:#FFFFFF;}
</style>
<g transform="translate(0.000000,512.000000) scale(0.100000,-0.100000)">
	<path class="st0" d="M4880,4886C4715,4827,111,3028,80,3011c-40-22-80-89-80-135c0-18,10-52,23-76l22-45l660-330
		c602-301,664-330,710-330c53,0,17-20,1155,643c31,18,13,1-354-323c-163-144-303-276-315-296c-21-36-21-43-21-803
		c0-733,1-768,19-804c39-76,152-106,222-59c26,17,534,673,578,745c5,10,187-90,687-375l679-388h62c71,0,107,20,136,76
		c18,34,857,4194,857,4247c0,46-41,105-90,130C4975,4915,4961,4915,4880,4886z M4379,2663c-199-995-365-1811-368-1815
		c-4-4-296,157-649,358c-444,253-655,368-682,371c-27,4-51-1-82-16c-36-17-71-59-220-257l-178-237l1,454v454l911,805
		c500,443,920,819,933,835c35,45,41,94,17,147c-36,81-113,123-184,99c-18-6-582-330-1253-720l-1219-709l-423,211
		c-247,124-417,214-410,219c7,3,442,174,967,379s1459,569,2075,809s1121,433,1123,429C4740,4474,4579,3657,4379,2663z"/>
</g>
</svg>
