<?xml version="1.0" encoding="utf-8"?>
<!-- Generator: Adobe Illustrator 24.0.1, SVG Export Plug-In . SVG Version: 6.00 Build 0)  -->
<svg version="1.1" id="Шар_1" xmlns="http://www.w3.org/2000/svg" xmlns:xlink="http://www.w3.org/1999/xlink" x="0px" y="0px"
	 viewBox="0 0 512 512" style="enable-background:new 0 0 512 512;" xml:space="preserve">
<style type="text/css">
	.st0{fill:#FFFFFF;}
</style>
<g transform="translate(0.000000,512.000000) scale(0.100000,-0.100000)">
	<path class="st0" d="M830,4403c-259-27-454-127-618-316c-75-88-154-239-185-357l-22-85V2560V1475l22-85c89-338,366-597,708-662
		c103-19,3547-19,3650,0c279,53,515,232,640,485c25,51,55,130,68,177l22,85v1085v1085l-22,85c-73,279-290,521-554,620
		c-156,58-37,54-1934,56C1648,4406,849,4405,830,4403z M4350,4024c176-41,331-191,384-373c14-48,16-172,16-1091
		c0-1143,3-1078-63-1204c-40-76-128-165-208-209c-126-71-6-67-1919-67s-1793-4-1919,67c-80,44-168,133-208,209
		c-66,126-63,61-63,1204s-3,1078,63,1204c63,119,203,229,333,260C858,4046,4255,4047,4350,4024z"/>
	<path class="st0" d="M2025,3625c-50-18-100-71-114-122c-15-52-15-1833-1-1885c27-94,126-153,218-128c24,6,318,193,721,459
		c374,247,691,457,705,468c88,65,88,216,0,286c-84,65-1392,918-1422,927C2085,3643,2074,3642,2025,3625z M2713,2822
		c213-140,387-258,387-262c0-5-527-356-802-534l-28-18v552v552l28-18C2313,3085,2499,2962,2713,2822z"/>
</g>
</svg>
