<svg id="Layer_1" data-name="Layer 1" xmlns="http://www.w3.org/2000/svg" viewBox="0 0 567.55 55.42"><defs><style>.cls-1{fill:#2566af;}.cls-2{fill:#e6a540;}.cls-3{fill:none;}.cls-4{fill:#76a62d;}.cls-5{fill:#75af26;}.cls-6{fill:#ff5f00;}.cls-7{fill:#eb001b;}.cls-8{fill:#f79e1b;}</style></defs><path class="cls-1" d="M149.74,43H139.68L146,4.4H156ZM131.22,4.4,121.62,31l-1.13-5.72h0L117.11,7.88s-.41-3.48-4.78-3.48H96.48l-.19.65a37.58,37.58,0,0,1,10.52,4.42L115.55,43H126L142,4.4ZM210.35,43h9.24L211.53,4.4h-8.09a4.62,4.62,0,0,0-4.64,2.88L183.8,43h10.48l2.1-5.74h12.79L210.35,43ZM199.28,29.37l5.28-14.46,3,14.46Zm-14.7-15.68L186,5.39A29.11,29.11,0,0,0,177,3.71c-5,0-16.85,2.18-16.85,12.79,0,10,13.92,10.11,13.92,15.35s-12.49,4.31-16.61,1l-1.49,8.68a28.21,28.21,0,0,0,11.36,2.18c6.86,0,17.22-3.55,17.22-13.23,0-10-14-11-14-15.35s9.8-3.81,14.1-1.44Z" transform="translate(6.29 4)"/><path class="cls-2" d="M120.49,25.26,117.11,7.88s-.41-3.48-4.78-3.48H96.48l-.19.65a39,39,0,0,1,14.93,7.5A30.16,30.16,0,0,1,120.49,25.26Z" transform="translate(6.29 4)"/><polygon class="cls-3" points="522.34 31.51 534.6 31.51 528.37 13.89 522.34 31.51"/><polygon class="cls-3" points="522.34 31.51 534.6 31.51 528.37 13.89 522.34 31.51"/><path class="cls-4" d="M525.82,6.79c-.34-1-.79-1.86-1.76-1.9h-2.43l-.22,0h-.78l-.22,0h0c-.81.12-1.21.93-1.52,1.88l-12,33.48a.8.8,0,0,0,.8.8h2.5c1,0,1.51-.81,1.81-1.8l2.39-7a1.17,1.17,0,0,1,1.13-.81h13.32a1.17,1.17,0,0,1,1.12.8l2.49,7c.31,1,.84,1.8,1.88,1.8H537a.82.82,0,0,0,.84-.8Zm-9.77,20.72,6-17.61,6.22,17.61Z" transform="translate(6.29 4)"/><path class="cls-4" d="M560.86,5a15,15,0,0,0-2.17-.11c-1.25,0-2,0-2.6.77a3.35,3.35,0,0,0-.21.36l-7.42,16.07L540.81,6a2.24,2.24,0,0,0-.21-.36c-.55-.77-1.35-.75-2.59-.77a15.14,15.14,0,0,0-2.18.11c-.76.29-.26,1.23.1,2l9.38,18.71a6.14,6.14,0,0,1,.65,2.75v11.3a1.38,1.38,0,0,0,1.38,1.38h2a1.38,1.38,0,0,0,1.39-1.38V28.5a6.19,6.19,0,0,1,.64-2.74L560.75,7C561.12,6.21,561.62,5.27,560.86,5Z" transform="translate(6.29 4)"/><path class="cls-4" d="M436.82,4.85H434a1.07,1.07,0,0,0-1.07,1.07v34A1.14,1.14,0,0,0,434,41.05h2.74a1.14,1.14,0,0,0,1.13-1.13v-34A1.09,1.09,0,0,0,436.82,4.85Z" transform="translate(6.29 4)"/><path class="cls-4" d="M426.66,36.74H414V5.93a1.06,1.06,0,0,0-1.06-1.07h-2.59a1.06,1.06,0,0,0-1.07,1.07V39.57h0a1.26,1.26,0,0,0,1.27,1.26h16.14a1.1,1.1,0,0,0,1.1-1.1V37.84A1.12,1.12,0,0,0,426.66,36.74Z" transform="translate(6.29 4)"/><path class="cls-4" d="M503.19,6.85C501.61,5.78,499.43,5,495.25,5h-8.08a1.74,1.74,0,0,0-1.75,1.74V39.26a1.8,1.8,0,0,0,1.8,1.8h1.39a1.79,1.79,0,0,0,1.8-1.8V27.05h7.29c.71,0,9.82-1.42,9.82-11.35A10.7,10.7,0,0,0,503.19,6.85ZM496,23.31h-5.63V8.77h4c2.76,0,4.2.49,5.25,1.2a7.06,7.06,0,0,1,2.85,5.85A7.24,7.24,0,0,1,496,23.31Z" transform="translate(6.29 4)"/><path class="cls-4" d="M480.8,41.86a2.87,2.87,0,0,0-.65-.34,42.25,42.25,0,0,1-6.15-3.6c-1.18-.77-1-1.37-.84-1.62l.1-.12h0c2.6-3.18,4.1-7.72,4.1-13.44,0-10.12-4.33-18.33-16.08-18.33-10.8,0-16,8.21-16,18.33s3.49,18.78,16,18.78a16.51,16.51,0,0,0,6.93-1.43h0a1.83,1.83,0,0,1,2,.33c5.8,4.3,8.68,5.88,10.74,5.88,1,0,.82-3,.82-3A2.47,2.47,0,0,0,480.8,41.86ZM450.42,22.8v-.07c0-6.87,2.52-14.16,10.89-14.16,9.48,0,10.93,7.29,10.94,14.16v.07c0,8.18-2.65,14.39-10.94,14.39C451.79,37.19,450.42,29.7,450.42,22.8Z" transform="translate(6.29 4)"/><path class="cls-5" d="M35.46,8.25V39.17H31.27C29.35,23.8,19.74,14.36,4.54,12.44V8.25ZM-6.29-2.58V23.1H-.87c14.32,0,21.48,7.34,21.48,21.66V50H46.29V-2.58Z" transform="translate(6.29 4)"/><rect y="33.39" width="20.61" height="20.61"/><path class="cls-6" d="M302.3,1.93h24.25V45.49H302.3Z" transform="translate(6.29 4)"/><path class="cls-7" d="M303.84,23.71A27.8,27.8,0,0,1,314.38,1.93a27.67,27.67,0,0,0-44.79,21.78,27.67,27.67,0,0,0,44.79,21.78A27.68,27.68,0,0,1,303.84,23.71Z" transform="translate(6.29 4)"/><path class="cls-8" d="M359.26,23.71a27.68,27.68,0,0,1-44.8,21.78,27.76,27.76,0,0,0,0-43.56,27.68,27.68,0,0,1,44.8,21.78Z" transform="translate(6.29 4)"/></svg>