<?xml version="1.0" encoding="utf-8"?>
<!-- Generator: Adobe Illustrator 24.0.1, SVG Export Plug-In . SVG Version: 6.00 Build 0)  -->
<svg version="1.1" id="Шар_1" xmlns="http://www.w3.org/2000/svg" xmlns:xlink="http://www.w3.org/1999/xlink" x="0px" y="0px"
	 viewBox="0 0 121.9 34" style="enable-background:new 0 0 121.9 34;" xml:space="preserve">
<style type="text/css">
	.st0{fill:#75AF26;}
	.st1{fill:#003E56;}
</style>
<g>
	<g>
		<g>
			<path class="st0" d="M23.9,7.1v17.7h-2.4C20.4,16,14.9,10.6,6.2,9.5V7.1H23.9z M0,0.9v14.7h3.1c8.2,0,12.3,4.2,12.3,12.4v3h14.7
				V0.9H0z"/>
			<rect y="19.2" width="11.8" height="11.8"/>
		</g>
	</g>
	<g>
		<path class="st1" d="M44.4,14c-1.6,0-2.9-0.6-3.8-1.7s-1.4-2.7-1.4-4.6c0-2.1,0.5-3.7,1.5-4.9c0.5-0.5,1.1-1,1.9-1.4
			s1.6-0.7,2.5-0.9s1.9-0.4,3.2-0.6v1.9c-2.1,0.4-3.4,0.7-3.9,0.9C43,3.2,42,4,41.6,5c-0.2,0.4-0.3,1-0.3,1.6c0.4-0.6,0.9-1,1.6-1.4
			C43.4,5,44.2,4.8,45,4.8c1.2,0,2.2,0.4,3.1,1.2c0.8,0.8,1.2,1.8,1.2,3.1c0,1.5-0.5,2.6-1.4,3.5C47,13.6,45.8,14,44.4,14z
			 M44.4,12.2c0.8,0,1.5-0.3,2-0.8c0.5-0.6,0.8-1.2,0.8-2.1c0-0.8-0.3-1.4-0.8-1.9s-1.2-0.7-1.9-0.7c-0.6,0-1.3,0.2-1.8,0.5
			c-0.6,0.4-1,0.8-1.4,1.4c0.1,1.2,0.3,2.1,0.9,2.7C42.7,11.9,43.5,12.2,44.4,12.2z"/>
		<path class="st1" d="M50.9,9c0-1.4,0.5-2.6,1.4-3.6S54.4,4,55.8,4c1,0,1.8,0.3,2.5,0.8c1.3,1,2,2.4,2,4.3v0.5H53
			c0.1,0.8,0.5,1.4,1.1,1.9c0.6,0.4,1.4,0.7,2.4,0.7c1.1,0,2.1-0.3,3.1-0.8v1.8c-0.9,0.6-2,0.9-3.5,0.9s-2.7-0.5-3.7-1.4
			C51.4,11.7,50.9,10.5,50.9,9z M53,8.1h5.1c0-0.6-0.3-1.1-0.7-1.6c-0.4-0.5-1-0.7-1.8-0.7c-0.7,0-1.3,0.2-1.8,0.6
			C53.4,6.9,53.1,7.4,53,8.1z"/>
		<path class="st1" d="M68.1,4.1c1.3,0,2.4,0.5,3.3,1.4c0.9,1,1.3,2.1,1.3,3.6c0,1.4-0.4,2.6-1.3,3.5c-0.9,1-2,1.4-3.3,1.4
			c-1.5,0-2.6-0.5-3.4-1.5v5.2h-2.1V4.3h2.1v1.3C65.5,4.6,66.6,4.1,68.1,4.1z M67.5,5.9c-0.6,0-1.2,0.2-1.7,0.5s-0.9,0.7-1.2,1.2
			v2.9c0.3,0.5,0.7,0.9,1.2,1.2s1.1,0.5,1.7,0.5c0.9,0,1.6-0.3,2.2-0.9c0.6-0.6,0.9-1.4,0.9-2.2c0-0.9-0.3-1.6-0.9-2.2
			C69.1,6.2,68.4,5.9,67.5,5.9z"/>
		<path class="st1" d="M74.3,9c0-1.4,0.5-2.6,1.4-3.6S77.8,4,79.2,4c1,0,1.8,0.3,2.5,0.8c1.3,1,2,2.4,2,4.3v0.5h-7.3
			c0.1,0.8,0.5,1.4,1.1,1.9c0.6,0.4,1.4,0.7,2.4,0.7c1.1,0,2.1-0.3,3.1-0.8v1.8c-0.9,0.6-2,0.9-3.5,0.9s-2.7-0.5-3.7-1.4
			C74.8,11.7,74.3,10.5,74.3,9z M76.4,8.1h5.1c0-0.6-0.3-1.1-0.7-1.6c-0.4-0.5-1-0.7-1.8-0.7c-0.7,0-1.3,0.2-1.8,0.6
			C76.8,6.9,76.5,7.4,76.4,8.1z"/>
		<path class="st1" d="M88.1,13.8h-2V4.3h2l3.2,3.9l3.3-3.9h2v9.5h-2V7.1l-2.9,3.5h-0.8L88,7.1v6.7H88.1z"/>
		<path class="st1" d="M104.2,14c-1.5,0-2.8-0.5-3.7-1.4c-1-1-1.5-2.1-1.5-3.6c0-1.4,0.5-2.6,1.5-3.5c1-1,2.2-1.4,3.7-1.4
			s2.7,0.5,3.7,1.4c1,1,1.5,2.1,1.5,3.5s-0.5,2.6-1.5,3.6S105.7,14,104.2,14z M104.2,12.2c0.9,0,1.6-0.3,2.2-0.9
			c0.6-0.6,0.9-1.3,0.9-2.3c0-0.9-0.3-1.6-0.9-2.2s-1.3-0.9-2.2-0.9c-0.9,0-1.6,0.3-2.2,0.9s-0.9,1.3-0.9,2.2s0.3,1.7,0.9,2.3
			C102.5,11.9,103.3,12.2,104.2,12.2z"/>
		<path class="st1" d="M41,19c-0.4,0-0.7-0.1-0.9-0.4c-0.3-0.3-0.4-0.6-0.4-0.9c0-0.4,0.1-0.7,0.4-0.9c0.3-0.3,0.6-0.4,0.9-0.4
			c0.4,0,0.7,0.1,0.9,0.4c0.3,0.3,0.4,0.6,0.4,0.9c0,0.4-0.1,0.7-0.4,0.9C41.7,18.8,41.4,19,41,19z M42.1,30.1H40v-9.5h2.1V30.1z"/>
		<path class="st1" d="M55.7,20.4c1.3,0,2.4,0.5,3.3,1.4c0.9,1,1.3,2.1,1.3,3.6c0,1.4-0.4,2.6-1.3,3.5c-0.9,1-2,1.4-3.3,1.4
			c-1.5,0-2.6-0.5-3.4-1.5V34h-2.1V20.7h2.1V22C53.1,20.9,54.2,20.4,55.7,20.4z M55.1,22.2c-0.6,0-1.2,0.2-1.7,0.5s-0.9,0.7-1.2,1.2
			v2.9c0.3,0.5,0.7,0.9,1.2,1.2c0.5,0.3,1.1,0.5,1.7,0.5c0.9,0,1.6-0.3,2.2-0.9s0.9-1.4,0.9-2.2c0-0.9-0.3-1.6-0.9-2.2
			C56.7,22.5,56,22.2,55.1,22.2z"/>
		<path class="st1" d="M67.1,30.4c-1.5,0-2.8-0.5-3.7-1.4c-1-1-1.5-2.2-1.5-3.6s0.5-2.6,1.5-3.5c1-1,2.2-1.4,3.7-1.4
			s2.7,0.5,3.7,1.4c1,1,1.5,2.1,1.5,3.5S71.8,28,70.8,29C69.9,29.9,68.6,30.4,67.1,30.4z M67.1,28.6c0.9,0,1.6-0.3,2.2-0.9
			s0.9-1.3,0.9-2.3c0-0.9-0.3-1.6-0.9-2.2s-1.3-0.9-2.2-0.9c-0.9,0-1.6,0.3-2.2,0.9S64,24.5,64,25.4c0,0.9,0.3,1.7,0.9,2.3
			S66.2,28.6,67.1,28.6z"/>
		<path class="st1" d="M79.2,30.4c-1.6,0-2.9-0.6-3.8-1.7S74,26,74,24.1c0-2.1,0.5-3.7,1.5-4.9c0.5-0.5,1.1-1,1.9-1.4
			s1.6-0.7,2.5-0.9c0.9-0.2,1.9-0.4,3.2-0.6v1.9c-2.1,0.4-3.4,0.7-3.9,0.9c-1.4,0.5-2.4,1.3-2.8,2.3c-0.2,0.4-0.3,1-0.3,1.6
			c0.4-0.6,0.9-1,1.6-1.4c0.7-0.3,1.4-0.5,2.2-0.5c1.2,0,2.2,0.4,3.1,1.2c0.8,0.8,1.2,1.8,1.2,3.1c0,1.5-0.5,2.6-1.4,3.5
			C81.8,29.9,80.6,30.4,79.2,30.4z M79.2,28.6c0.8,0,1.5-0.3,2-0.8s0.8-1.2,0.8-2.1c0-0.8-0.3-1.4-0.8-1.9s-1.2-0.7-1.9-0.7
			c-0.6,0-1.3,0.2-1.8,0.5c-0.6,0.4-1,0.8-1.4,1.4c0.1,1.2,0.3,2.1,0.9,2.7C77.5,28.2,78.3,28.6,79.2,28.6z"/>
		<path class="st1" d="M88.4,30.1h-2v-9.5h2.1V27l5.1-6.4h2v9.5h-2.1v-6.5L88.4,30.1z"/>
		<path class="st1" d="M100.5,30.1h-2v-9.5h2l3.2,3.9l3.3-3.9h2v9.5h-2v-6.6l-2.9,3.5h-0.7l-2.9-3.5V30.1z"/>
		<path class="st1" d="M116.7,30.4c-1.5,0-2.8-0.5-3.7-1.4c-1-1-1.5-2.2-1.5-3.6s0.5-2.6,1.5-3.5c1-1,2.2-1.4,3.7-1.4
			s2.7,0.5,3.7,1.4c1,1,1.5,2.1,1.5,3.5s-0.5,2.6-1.5,3.5C119.4,29.9,118.1,30.4,116.7,30.4z M116.7,28.6c0.9,0,1.6-0.3,2.2-0.9
			c0.6-0.6,0.9-1.3,0.9-2.3c0-0.9-0.3-1.6-0.9-2.2c-0.6-0.6-1.3-0.9-2.2-0.9s-1.6,0.3-2.2,0.9c-0.6,0.6-0.9,1.3-0.9,2.2
			c0,0.9,0.3,1.7,0.9,2.3C115,28.3,115.8,28.6,116.7,28.6z"/>
	</g>
</g>
</svg>
