<?xml version="1.0" encoding="UTF-8"?> <svg xmlns="http://www.w3.org/2000/svg" viewBox="0 0 253.13 46.24"> <defs> <style>.cls-1{fill:#8ec340;}</style> </defs> <g id="Layer_2" data-name="Layer 2"> <g id="Layer_1-2" data-name="Layer 1"> <path class="cls-1" d="M40.34,1.08A2.17,2.17,0,0,0,38.46,0H14.26a2.16,2.16,0,0,0-1.87,1.08L.29,22a2.14,2.14,0,0,0,0,2.16l12.1,21a2.16,2.16,0,0,0,1.87,1.08h24.2a2.17,2.17,0,0,0,1.88-1.08l12.1-21a2.19,2.19,0,0,0,0-2.16ZM17.25,42.94,7.79,26.56l9.46-16.37H27.39l5.86,10.14-3,5.14-5.21-9.1H20.42L14.54,26.56,24,42.94Zm18.23-6.88H25.34L19.48,25.91l3-5.14,5.2,9.1H32.3l5.89-10.19L28.73,3.3h6.75l9.46,16.38Z"></path> <rect class="cls-1" x="107.36" y="6.27" width="7.44" height="33.14"></rect> <path class="cls-1" d="M147.9,35.8A16.73,16.73,0,0,0,152,38.93a10,10,0,0,0,4.68,1c1.8,0,2.95-.19,3.44-.57l1.12-4.56a11.3,11.3,0,0,1-3.43-.82A15,15,0,0,1,153,30.9l-1.13-1q-2.37-2.27-4.68-4.12A29.38,29.38,0,0,0,144,23.43a14.59,14.59,0,0,0-2.74-1.27Q143.73,20,153.48,9.65l2.31-3.38h-9.14a128.6,128.6,0,0,1-10.93,13.24,3.79,3.79,0,0,1-1.35.91,5.44,5.44,0,0,1-1.86.28h-3.16V6.27h-7.44V39.41h7.44V26.22H132a15,15,0,0,1,6.06,1,15.76,15.76,0,0,1,4.65,3.38Q145.76,33.55,147.9,35.8Z"></path> <path class="cls-1" d="M253.13,34.87a14,14,0,0,1-7.38-2.19,17.11,17.11,0,0,1-2-1.36c-.62-.48-1.2-.95-1.72-1.41-1.13-1-2.11-1.74-2.93-2.31-.61-.37-1.06-.64-1.36-.79q5.07-.33,7-3.18a10.76,10.76,0,0,0,2-6.23V16.33a17,17,0,0,0-.65-4.9,6.85,6.85,0,0,0-2.9-3.67Q241,6.25,236.5,6.24H212.09v33.2h7.44V11.65h15.38c2.94,0,4.4,1.43,4.4,4.29v1.29q0,3.78-4.45,4.23c-1.36.13-3.83.21-5.66.25v6.57a15.87,15.87,0,0,1,4.93,3.49l4.05,4.06a14.38,14.38,0,0,0,4.65,3.36,13.08,13.08,0,0,0,4.71.81,14.62,14.62,0,0,0,4.45-.56Z"></path> <polygon class="cls-1" points="93.45 6.27 87.4 18.95 81.61 31.1 79.97 34.34 79.41 34.34 77.79 31.1 72.12 18.95 66.21 6.27 57.6 6.27 74.06 39.41 85.16 39.41 101.68 6.27 93.45 6.27"></polygon> <polygon class="cls-1" points="185.81 11.62 186.37 11.62 188 14.86 193.66 27.01 199.57 39.69 208.19 39.69 191.73 6.55 180.62 6.55 164.11 39.69 172.34 39.69 178.38 27.01 184.17 14.86 185.81 11.62"></polygon> <rect class="cls-1" x="182.11" y="25.95" width="7.84" height="7.84"></rect> </g> </g> </svg> 