<svg id="Layer_1" data-name="Layer 1" xmlns="http://www.w3.org/2000/svg" viewBox="0 0 506.25 92.55"><defs><style>.cls-1{fill:#8ec241;}</style></defs><path class="cls-1" d="M1146.07,572.85h-14.85V506.47h49.1a27.33,27.33,0,0,1,9.91,1.47c4.89,1.88,8.28,5.15,9.41,10.44a37.89,37.89,0,0,1,.4,15,19.52,19.52,0,0,1-3.75,8.27,14.26,14.26,0,0,1-8.57,5.17c-1.64.39-3.32.6-5.07.9l1,.63a55.72,55.72,0,0,1,8.19,6.22,41.28,41.28,0,0,0,11.85,7.42,26.93,26.93,0,0,0,8.86,1.82h.67c-.45,1.84-.88,3.63-1.32,5.41-.25,1-.53,2-.73,3a1,1,0,0,1-.87.86,34.57,34.57,0,0,1-10.68.82,22.47,22.47,0,0,1-14.57-6.67c-3.34-3.25-6.63-6.56-9.93-9.85a33.27,33.27,0,0,0-9.22-6.65.93.93,0,0,1-.47-.62v-12.4a2.68,2.68,0,0,1,.07-.27c1.94-.07,3.89-.07,5.84-.21a74,74,0,0,0,8-.8,7.14,7.14,0,0,0,5.89-5,8,8,0,0,0,.4-2.28,40.54,40.54,0,0,0-.14-5.4c-.46-3.8-2.89-6-6.71-6.41a21.2,21.2,0,0,0-2.25-.12h-30.48Z" transform="translate(-706.97 -493.96)"/><path class="cls-1" d="M950.61,506.58h14.77v28.67c.13.09.18.15.22.15h7.29a7.66,7.66,0,0,0,5.73-2.74c3.25-3.67,6.62-7.26,9.73-11,3.85-4.68,7.49-9.53,11.2-14.33a1.67,1.67,0,0,1,1.49-.73h17.15a1.85,1.85,0,0,1-.18.44c-1.39,2-2.7,4.16-4.22,6.12a54.9,54.9,0,0,1-4.08,4.41q-9.66,9.95-19.35,19.87c-.29.3-.61.58-1,1l1.57.63a37.47,37.47,0,0,1,10.41,6.77q6,5.2,12,10.6a28.65,28.65,0,0,0,13.75,7.16c.68.13,1.38.21,2.17.33-.14.58-.29,1.17-.44,1.76-.52,2.14-1.07,4.27-1.54,6.42a1.49,1.49,0,0,1-1.29,1.34c-1.48.23-3,.48-4.45.59-6.75.49-12.35-2.08-17.13-6.62-3.18-3-6.18-6.23-9.34-9.27-2.38-2.29-4.78-4.57-7.34-6.66a22.32,22.32,0,0,0-13.57-4.82c-2.73-.12-5.46-.09-8.2-.13h-.52v26.34H950.61Z" transform="translate(-706.97 -493.96)"/><path class="cls-1" d="M1123.22,573.35h-16.4a1,1,0,0,1-1.06-.7q-11.34-24.35-22.7-48.67c-1-2.1-2.07-4.16-3.09-6.24a1,1,0,0,0-1.34-.46,1,1,0,0,0-.46.46c-2.71,5.58-5.45,11.14-8.13,16.73q-9.12,19-18.17,38.12a1.13,1.13,0,0,1-1.24.77h-15.51c.57-1.15,1.09-2.22,1.62-3.28q15.46-31,30.9-62a1.49,1.49,0,0,1,1.59-1h20.31a1.07,1.07,0,0,1,1.14.7q16,32.22,32,64.43C1122.85,572.55,1123,572.91,1123.22,573.35Z" transform="translate(-706.97 -493.96)"/><path class="cls-1" d="M821.85,506.58c.34,0,.58-.05.82-.05h15.57a1,1,0,0,1,1.06.7q11.28,24.24,22.59,48.46c1,2.18,2.14,4.3,3.2,6.45a1,1,0,0,0,1.34.45,1,1,0,0,0,.45-.45c2.81-5.78,5.65-11.54,8.42-17.34q9-18.7,17.84-37.45a1.25,1.25,0,0,1,1.36-.83h15.44c-.43.88-.79,1.63-1.17,2.39Q893,540.5,877.29,572.09a1.16,1.16,0,0,1-1.24.76H855.51a1.08,1.08,0,0,1-1.14-.68q-16.05-32.4-32.15-64.77C822.1,507.16,822,506.91,821.85,506.58Z" transform="translate(-706.97 -493.96)"/><path class="cls-1" d="M921.44,572.78V506.59h14.78v66.19Z" transform="translate(-706.97 -493.96)"/><path class="cls-1" d="M1086.72,561.52h-15.53V546h15.53Z" transform="translate(-706.97 -493.96)"/><path class="cls-1" d="M811.76,537.87q-12-20.73-23.94-41.47a4.55,4.55,0,0,0-4.26-2.43H736a4.82,4.82,0,0,0-4.53,2.62q-11.85,20.59-23.76,41.15a4.62,4.62,0,0,0,0,5q11.94,20.63,23.84,41.27a4.6,4.6,0,0,0,4.37,2.5h47.55a4.67,4.67,0,0,0,4.42-2.55q11.91-20.69,23.87-41.34A4.43,4.43,0,0,0,811.76,537.87ZM754.26,580H742.07a1,1,0,0,1-1-.58q-9.11-15.79-18.24-31.59a1.11,1.11,0,0,1,0-1.28Q732,530.76,741.08,515a1.06,1.06,0,0,1,1.06-.62h19a1.06,1.06,0,0,1,1.06.61q5.47,9.54,11,19a1.17,1.17,0,0,1,0,1.36c-1.76,3-3.49,6-5.23,9l-.4.65-3.12-5.44-7-12.19a1,1,0,0,0-1.05-.62h-8a.88.88,0,0,0-.89.5q-5.6,9.74-11.23,19.43c-.29.5-.06.8.14,1.16l17.76,30.74c.24.41.47.82.75,1.32C754.68,579.91,754.47,580,754.26,580Zm42.3-46q-9.12,15.75-18.2,31.52a1.13,1.13,0,0,1-1.12.65H758.36a1.13,1.13,0,0,1-1.12-.65q-5.49-9.57-11-19.12a1.21,1.21,0,0,1-.1-1c1.82-3.23,3.69-6.43,5.54-9.63l.2-.25c.18.31.35.57.51.85L762,553.11a1,1,0,0,0,1,.61h8a.88.88,0,0,0,.89-.5q5.56-9.69,11.18-19.37a.92.92,0,0,0,0-1.07Q774,517.09,764.9,501.4c-.15-.25-.28-.51-.48-.89h12.84a1.11,1.11,0,0,1,1.12.62q9.09,15.78,18.2,31.52A1.17,1.17,0,0,1,796.56,534Z" transform="translate(-706.97 -493.96)"/></svg>