<?xml version="1.0" encoding="utf-8"?>
<!-- Generator: Adobe Illustrator 26.0.1, SVG Export Plug-In . SVG Version: 6.00 Build 0)  -->
<svg version="1.1" id="Шар_1" xmlns="http://www.w3.org/2000/svg" xmlns:xlink="http://www.w3.org/1999/xlink" x="0px" y="0px"
	 viewBox="0 0 378 453.2" style="enable-background:new 0 0 378 453.2;" xml:space="preserve">
<style type="text/css">
	.st0{fill:#201600;}
</style>
<g transform="translate(0.000000,512.000000) scale(0.100000,-0.100000)">
	<path class="st0" d="M1695.1,5108.4c-241.8-37.2-457.9-152.3-627.1-332.1c-186-197.5-282.5-426-295.8-699.7
		c-18.6-382.6,169.2-748.4,493.3-960.1c159.4-104.5,312.7-157.7,498.7-172.7c344.5-26.6,638.6,81.5,876,323.3
		c188.6,191.3,284.3,400.3,307.3,666.9c31.9,356.1-102.7,687.3-371.1,919.4c-173.6,148.8-333,223.2-553.6,255.1
		C1916.5,5123.4,1792.5,5124.3,1695.1,5108.4z"/>
	<path class="st0" d="M890.9,2924.2c-400.3-42.5-678.5-329.5-807.8-836.1C-2.8,1750.7-25,1345,30,1122.7
		C75.1,944.7,223,764,394,677.2c77.1-39,187.8-70.9,280.8-81.5c54.9-7.1,473-8.9,1272.8-7.1l1191.3,2.7l75.3,21.3
		c279.9,76.2,471.2,263.9,541.2,527.9c36.3,137.3,31.9,465-10.6,723.6c-93,575.7-328.6,921.1-701.5,1029.2
		c-85,24.8-237.4,43.4-282.5,34.5c-43.4-8-103.6-39.9-240-127.5c-145.3-93.9-165.6-104.5-274.6-145.3
		c-125.8-46.9-229.4-67.3-350.7-67.3c-124,0-219.6,17.7-345.4,62c-118.7,42.5-124,45.2-310,163c-97.4,62-170.1,101.9-198.4,109.8
		C991.8,2934.9,991.8,2934.9,890.9,2924.2z"/>
</g>
</svg>
