<?xml version="1.0" encoding="utf-8"?>
<!-- Generator: Adobe Illustrator 24.0.1, SVG Export Plug-In . SVG Version: 6.00 Build 0)  -->
<svg version="1.1" id="Шар_1" xmlns="http://www.w3.org/2000/svg" xmlns:xlink="http://www.w3.org/1999/xlink" x="0px" y="0px"
	 viewBox="0 0 512 512" style="enable-background:new 0 0 512 512;" xml:space="preserve">
<style type="text/css">
	.st0{fill:#8EC540;}
</style>
<g transform="translate(0.000000,512.000000) scale(0.100000,-0.100000)">
	<path class="st0" d="M691,4492c-50-25-74-63-78-124c-3-41,1-60,16-85c41-65,52-67,300-73l225-5l218-870c119-478,218-873,218-877
		c0-5-8-8-18-8s-50-16-91-35c-134-64-227-190-253-341c-40-242,135-483,382-524c44-7,448-10,1272-8c1201,3,1207,3,1234,24
		c44,32,66,68,71,117c7,59-26,121-79,148c-36,18-79,19-1244,19c-1187,0-1208,0-1249,20c-106,52-112,189-11,264c27,21,35,21,1259,26
		c1170,5,1233,6,1259,23c15,10,34,29,42,42c26,40,438,1704,433,1747c-6,42-37,92-70,111c-17,9-350,13-1527,17l-1505,5l-42,164
		c-64,251-46,241-435,241C759,4510,721,4508,691,4492z M4250,3795c0-14-322-1293-330-1313l-10-22l-1002,2l-1003,3l-166,660
		c-91,363-164,663-162,668C1582,3801,4250,3803,4250,3795z"/>
	<path class="st0" d="M1727,1230c-110-19-223-106-270-208c-18-38-22-65-22-147c0-95,2-103,34-163c41-75,94-125,170-161
		c47-22,70-26,146-26s99,4,146,26c79,37,133,90,171,167c30,61,33,75,33,162c0,84-3,102-28,151c-46,95-152,179-242,194
		C1789,1237,1775,1238,1727,1230z M1820,910c11-11,20-23,20-28c0-20-34-52-55-52s-55,32-55,52c0,14,39,48,55,48
		C1793,930,1809,921,1820,910z"/>
	<path class="st0" d="M3772,1229c-146-24-267-145-290-293c-26-163,55-313,206-384c49-23,70-27,147-27s98,4,147,27
		c73,34,137,98,174,174c26,52,29,70,29,149c0,82-3,97-33,157C4080,1178,3932,1254,3772,1229z M3861,920c22-12,26-59,7-78
		c-7-7-25-12-40-12c-40,0-58,39-34,75C3812,932,3830,936,3861,920z"/>
</g>
</svg>
