<?xml version="1.0" encoding="utf-8"?>
<!-- Generator: Adobe Illustrator 26.0.1, SVG Export Plug-In . SVG Version: 6.00 Build 0)  -->
<svg version="1.1" id="Layer_1" xmlns="http://www.w3.org/2000/svg" xmlns:xlink="http://www.w3.org/1999/xlink" x="0px" y="0px"
	 viewBox="0 0 30 30.7" style="enable-background:new 0 0 30 30.7;" xml:space="preserve">
<style type="text/css">
	.st0{fill:#4285F4;}
	.st1{fill:#34A853;}
	.st2{fill:#FBBC05;}
	.st3{fill:#EB4335;}
</style>
<g>
	<path class="st0" d="M30,15.7c0-1.3-0.1-2.2-0.3-3.1H15.3v5.7h8.4c-0.2,1.4-1.1,3.5-3.1,5l0,0.2l4.5,3.5l0.3,0
		C28.3,24.3,30,20.3,30,15.7"/>
	<path class="st1" d="M15.3,30.7c4.1,0,7.6-1.4,10.1-3.7l-4.8-3.7c-1.3,0.9-3,1.5-5.3,1.5c-4,0-7.5-2.7-8.7-6.4l-0.2,0L1.7,22
		l-0.1,0.2C4.1,27.2,9.3,30.7,15.3,30.7"/>
	<path class="st2" d="M6.6,18.4c-0.3-1-0.5-2-0.5-3c0-1.1,0.2-2.1,0.5-3l0-0.2L1.8,8.4L1.6,8.5c-1,2.1-1.6,4.4-1.6,6.9
		s0.6,4.8,1.6,6.9L6.6,18.4"/>
	<path class="st3" d="M15.3,6c2.9,0,4.8,1.2,5.9,2.3L25.5,4c-2.7-2.5-6.1-4-10.2-4C9.3,0,4.1,3.5,1.6,8.5l4.9,3.8
		C7.8,8.6,11.3,6,15.3,6"/>
</g>
</svg>
