<svg id="Layer_1" data-name="Layer 1" xmlns="http://www.w3.org/2000/svg" viewBox="0 0 50 48.94"><path d="M55.18,24a24.27,24.27,0,0,0-43.45-7.09L9.42,20.27l-1.3-5.08-2,.56,2.33,9.57L18,21.53l-.57-2-7,3.23,2.73-4.26A22.1,22.1,0,0,1,50.9,41.43,22.3,22.3,0,0,1,31.34,53h0a22.37,22.37,0,0,1-10.67-2.73,21.64,21.64,0,0,1-8.09-7.86l-1.89.91a23.62,23.62,0,0,0,9,8.74,24.5,24.5,0,0,0,11.93,3.12h0A24.53,24.53,0,0,0,55.18,24Z" transform="translate(-6.12 -6.25)"/><path d="M20.37,39.35l10.3,5.08a3.87,3.87,0,0,0,1.38.37.71.71,0,0,0,.9,0,4.08,4.08,0,0,0,1.38-.36l10.3-5.09a3.32,3.32,0,0,0,1.92-2.91h0V26.27a3.15,3.15,0,0,0-.46-1.58.29.29,0,0,0,0-.1.75.75,0,0,0-.23-.27,3.72,3.72,0,0,0-1.2-1l-10.3-5.08a4.2,4.2,0,0,0-3.66,0l-10.3,5.08a3.72,3.72,0,0,0-1.2,1,.67.67,0,0,0-.23.27.38.38,0,0,0,0,.1,3.06,3.06,0,0,0-.46,1.58V36.44A3.33,3.33,0,0,0,20.37,39.35Zm.72-1.44a1.71,1.71,0,0,1-1-1.48V26.27a1.42,1.42,0,0,1,0-.2l11.59,5.79V43.1a1.92,1.92,0,0,1-.31-.11Zm23.85-1.48a1.73,1.73,0,0,1-1,1.48L33.61,43a1.42,1.42,0,0,1-.31.11V31.86l11.6-5.79a1.42,1.42,0,0,1,0,.2ZM31.39,19.71a2.57,2.57,0,0,1,2.23,0l10.26,5.06L32.5,30.47,21.12,24.78Z" transform="translate(-6.12 -6.25)"/></svg>