<?xml version="1.0" encoding="utf-8"?>
<!-- Generator: Adobe Illustrator 24.0.1, SVG Export Plug-In . SVG Version: 6.00 Build 0)  -->
<svg version="1.1" id="Шар_1" xmlns="http://www.w3.org/2000/svg" xmlns:xlink="http://www.w3.org/1999/xlink" x="0px" y="0px"
	 viewBox="0 0 512 512" style="enable-background:new 0 0 512 512;" xml:space="preserve">
<style type="text/css">
	.st0{fill:#8EC540;}
</style>
<g transform="translate(0.000000,512.000000) scale(0.100000,-0.100000)">
	<path class="st0" d="M1150,4743c-19-2-82-12-140-23c-539-101-890-457-984-1000c-50-288-27-521,78-793c59-152,91-214,185-354
		c154-230,248-327,1226-1270c512-493,944-904,960-915c40-24,130-24,170,0c35,22,1689,1610,1853,1780c336,348,516,653,599,1012
		c24,106,24,398-1,535c-27,148-61,258-116,370c-166,339-457,552-866,636c-145,29-429,37-549,15c-119-23-250-67-360-122
		c-167-84-433-275-582-417l-63-60l-62,60c-150,143-418,334-583,416c-203,101-360,138-582,135C1252,4748,1169,4745,1150,4743z"/>
</g>
</svg>
