<?xml version="1.0" encoding="utf-8"?>
<!-- Generator: Adobe Illustrator 24.0.1, SVG Export Plug-In . SVG Version: 6.00 Build 0)  -->
<svg version="1.1" id="Шар_1" xmlns="http://www.w3.org/2000/svg" xmlns:xlink="http://www.w3.org/1999/xlink" x="0px" y="0px"
	 viewBox="0 0 512 512" style="enable-background:new 0 0 512 512;" xml:space="preserve">
<style type="text/css">
	.st0{fill:#8EC540;}
</style>
<g transform="translate(0.000000,512.000000) scale(0.100000,-0.100000)">
	<path class="st0" d="M2330,5110c-494-48-950-230-1350-538c-195-150-448-432-594-662c-63-99-186-351-230-471
		c-49-134-102-340-128-499c-31-195-31-565,0-760c45-276,116-498,237-745c132-269,269-460,489-681c221-220,412-357,681-489
		c247-121,469-192,745-237c195-31,565-31,760,0c276,45,498,116,745,237c269,132,460,269,681,489c220,221,357,412,489,681
		c88,179,132,296,180,476c63,240,78,371,78,649s-15,409-78,649c-48,180-92,297-180,476c-132,269-269,460-489,681
		c-221,220-412,357-681,489c-246,121-474,193-740,235C2798,5113,2470,5124,2330,5110z M2838,4635c707-99,1309-540,1614-1183
		c137-288,198-564,198-892c0-191-16-329-59-506c-182-741-784-1343-1525-1525c-177-43-315-59-506-59s-329,16-506,59
		C1313,711,711,1313,529,2054c-43,177-59,315-59,506s16,329,59,506c182,742,784,1344,1527,1525c67,16,164,36,215,43
		C2402,4653,2703,4654,2838,4635z"/>
	<path class="st0" d="M2444,4009c-100-38-181-148-191-258c-16-179,126-334,307-334c241,0,389,264,262,467
		C2743,4011,2585,4063,2444,4009z"/>
	<path class="st0" d="M2492,2935c-63-19-111-61-138-119l-24-51v-750c0-709,1-752,19-790c67-144,255-181,370-72c18,18,42,50,52,72
		c18,38,19,81,19,790v750l-24,51c-28,59-75,100-142,120C2567,2953,2548,2953,2492,2935z"/>
</g>
</svg>
