<?xml version="1.0" encoding="utf-8"?>
<!-- Generator: Adobe Illustrator 24.0.1, SVG Export Plug-In . SVG Version: 6.00 Build 0)  -->
<svg version="1.1" id="Шар_1" xmlns="http://www.w3.org/2000/svg" xmlns:xlink="http://www.w3.org/1999/xlink" x="0px" y="0px"
	 viewBox="0 0 512 512" style="enable-background:new 0 0 512 512;" xml:space="preserve">
<style type="text/css">
	.st0{fill:#8EC540;}
</style>
<g transform="translate(0.000000,512.000000) scale(0.100000,-0.100000)">
	<path class="st0" d="M2380,4969c-549-57-1046-354-1352-808c-260-388-372-884-288-1275c97-448,450-1085,1018-1841
		c259-344,674-846,730-883c34-22,110-22,144,0c56,37,489,562,745,903c560,747,915,1392,1003,1827c65,318,8,695-156,1038
		c-177,368-471,666-839,850C3066,4939,2723,5004,2380,4969z M2878,4661c556-123,988-510,1167-1043c69-207,95-484,61-660
		c-85-438-489-1132-1149-1972c-161-205-387-476-397-476c-19,0-411,487-637,791c-461,621-744,1110-866,1496c-51,160-61,237-54,416
		c11,283,96,544,256,782c244,365,625,608,1066,681C2446,4696,2758,4688,2878,4661z"/>
	<path class="st0" d="M2356,4104c-497-111-829-562-785-1066c21-239,125-455,300-623c403-386,1026-373,1407,30
		c162,171,250,363,271,593c44,475-253,909-716,1048c-76,23-110,27-248,30C2467,4119,2407,4115,2356,4104z M2784,3802
		c118-41,187-84,276-172c86-87,139-172,177-285c24-71,27-95,27-215s-3-144-27-215c-38-116-91-199-183-292c-144-144-322-211-534-200
		c-299,15-541,203-638,495c-23,67-26,94-26,212c0,120,3,144,27,215c69,207,222,368,423,447c100,38,160,48,286,43
		C2677,3832,2716,3826,2784,3802z"/>
</g>
</svg>
