<?xml version="1.0" encoding="utf-8"?>
<!-- Generator: Adobe Illustrator 24.0.1, SVG Export Plug-In . SVG Version: 6.00 Build 0)  -->
<svg version="1.1" id="Шар_1" xmlns="http://www.w3.org/2000/svg" xmlns:xlink="http://www.w3.org/1999/xlink" x="0px" y="0px"
	 viewBox="0 0 512 512" style="enable-background:new 0 0 512 512;" xml:space="preserve">
<style type="text/css">
	.st0{fill:#8EC540;}
</style>
<g transform="translate(0.000000,512.000000) scale(0.100000,-0.100000)">
	<path class="st0" d="M2380,5114c-19-2-78-9-130-14c-330-36-695-160-990-336c-375-224-680-529-904-904c-175-292-291-632-338-990
		c-16-123-16-497,0-620c82-623,356-1150,820-1581c256-239,575-425,922-539C2034,39,2251,6,2560,6c228,0,329,9,530,50
		c689,141,1304,583,1674,1204c175,292,291,632,338,990c16,123,16,497,0,620c-47,358-163,698-338,990c-224,375-529,680-904,904
		c-289,173-634,291-980,336C2792,5112,2442,5121,2380,5114z M2650,4739c216-148,402-343,566-589c53-79,114-183,114-194
		c0-3-346-6-770-6c-423,0-770,3-770,6c0,11,61,115,114,194c164,246,350,441,566,589c40,28,81,51,90,51S2610,4767,2650,4739z
		 M1984,4728c-10-13-46-52-79-88c-138-147-283-356-391-564l-66-126h-329c-181,0-329,3-329,8c0,4,40,52,88,107
		c209,238,529,465,827,586c63,25,274,96,294,99C2001,4750,1995,4740,1984,4728z M3378,4664c236-92,462-228,664-402
		c100-86,288-285,288-304c0-5-148-8-329-8h-329l-66,126c-108,208-253,417-391,564c-33,36-69,75-79,87l-18,22l73-20
		C3232,4717,3316,4688,3378,4664z M1326,3633c-89-282-144-565-161-820l-7-103H734H310v43c0,48,21,189,44,292c37,173,103,358,182,518
		l44,87h376C1309,3650,1331,3649,1326,3633z M3507,3545c69-206,122-455,143-680c5-60,10-120,10-132v-23H2560H1460v23
		c0,113,45,417,86,582c22,88,89,307,101,328c2,4,414,6,915,5l911-3L3507,3545z M4584,3563c79-160,145-345,182-518
		c23-103,44-244,44-292v-43h-424h-424l-7,103c-17,255-72,538-161,820c-5,16,17,17,370,17h376L4584,3563z M1165,2308
		c17-256,72-539,161-820c5-17-17-18-370-18H580l-44,88c-79,159-145,344-182,517c-23,103-44,244-44,293v42h424h424L1165,2308z
		 M3660,2388c0-13-5-72-10-133c-21-225-74-474-143-680l-34-100h-913h-913l-34,100c-69,206-122,455-143,680c-5,61-10,120-10,133v22
		h1100h1100V2388z M4810,2368c0-49-21-190-44-293c-37-173-103-358-182-517l-44-88h-376c-353,0-375,1-370,18c89,281,144,564,161,820
		l7,102h424h424V2368z M1514,1044c108-208,253-417,391-564c33-36,69-75,79-87l18-22l-73,20c-290,81-601,252-851,467
		c-100,86-288,285-288,305c0,4,148,7,329,7h329L1514,1044z M3330,1164c0-22-127-220-224-349c-117-156-386-403-512-471
		c-33-18-35-18-68,0c-126,68-395,315-512,471c-97,129-224,327-224,349c0,3,347,6,770,6C2984,1170,3330,1167,3330,1164z M4330,1163
		c0-20-188-219-288-305c-250-215-561-386-851-467l-73-20l18,22c10,12,46,51,79,87c138,147,283,356,391,564l66,126h329
		C4182,1170,4330,1167,4330,1163z"/>
</g>
</svg>
